<svg xmlns="http://www.w3.org/2000/svg" version="1.0" viewBox="0 0 383.884406 479.92821999999995" preserveAspectRatio="xMidYMid meet" x="0px" y="0px"><metadata>
Created by potrace 1.16, written by Peter Selinger 2001-2019
</metadata><g transform="translate(-0.099184,384.042281) scale(0.100000,-0.100000)" fill="#000000" stroke="none"><path d="M1710 3829 c-490 -57 -945 -300 -1258 -674 -487 -581 -588 -1382 -262 -2063 193 -401 501 -709 901 -901 682 -327 1483 -226 2064 261 431 360 685 906 685 1468 0 562 -254 1108 -685 1468 -400 336 -937 499 -1445 441z m340 -734 c235 -36 432 -124 605 -270 l67 -57 134 133 134 134 0 -443 0 -442 -442 0 -443 0 153 153 154 154 -43 36 c-106 91 -262 159 -411 179 -279 37 -576 -99 -735 -337 -88 -132 -136 -295 -135 -465 0 -104 43 -249 104 -353 54 -92 205 -242 293 -291 84 -48 225 -93 316 -102 192 -19 429 63 577 200 l43 40 159 -159 160 -159 -33 -34 c-114 -120 -337 -242 -532 -294 -113 -30 -130 -31 -300 -31 -169 0 -187 1 -297 31 -208 54 -381 150 -534 294 -219 208 -349 475 -382 786 -27 259 71 599 237 819 74 98 206 225 300 287 143 95 338 170 507 195 94 14 241 12 344 -4z"/></g><text x="0" y="398.942576" fill="#000000" font-size="5px" font-weight="bold" font-family="'Helvetica Neue', Helvetica, Arial-Unicode, Arial, Sans-serif">Created by iconeu</text><text x="0" y="403.942576" fill="#000000" font-size="5px" font-weight="bold" font-family="'Helvetica Neue', Helvetica, Arial-Unicode, Arial, Sans-serif">from the Noun Project</text></svg>